<svg width="20" height="19" viewBox="0 0 20 19" fill="none" xmlns="http://www.w3.org/2000/svg">
<path d="M9.7736 11.4583C10.3413 11.4583 10.8274 11.2542 11.232 10.8458C11.6366 10.4375 11.8386 9.94722 11.8379 9.375C11.8379 8.80208 11.6356 8.31146 11.231 7.90312C10.8264 7.49479 10.3406 7.29097 9.7736 7.29167C9.20592 7.29167 8.71978 7.49583 8.31517 7.90417C7.91057 8.3125 7.70861 8.80278 7.7093 9.375C7.7093 9.94792 7.9116 10.4385 8.3162 10.8469C8.72081 11.2552 9.20661 11.459 9.7736 11.4583ZM9.7736 18.75C12.1648 18.75 14.2377 17.9556 15.9923 16.3667C17.747 14.7778 18.7533 12.7944 19.0114 10.4167H16.8955C16.6546 12.2222 15.8588 13.7153 14.5081 14.8958C13.1573 16.0764 11.5792 16.6667 9.7736 16.6667C7.76091 16.6667 6.05338 15.959 4.65103 14.5437C3.24867 13.1285 2.54784 11.4056 2.54853 9.375C2.54853 7.34375 3.24971 5.62049 4.65206 4.20521C6.05441 2.78993 7.76159 2.08264 9.7736 2.08333C10.9606 2.08333 12.0701 2.36111 13.1023 2.91667C14.1345 3.47222 15.0032 4.23611 15.7085 5.20833H12.8701V7.29167H19.063V1.04167H16.9987V3.48958C16.1214 2.37847 15.0503 1.5191 13.7856 0.911458C12.5209 0.303819 11.1835 0 9.7736 0C8.48341 0 7.27476 0.24757 6.14765 0.742708C5.02054 1.23785 4.03999 1.9059 3.20601 2.74688C2.37203 3.58924 1.70973 4.57882 1.21911 5.71563C0.728497 6.85243 0.483534 8.07222 0.484221 9.375C0.484221 10.6771 0.729528 11.8969 1.22015 13.0344C1.71076 14.1719 2.37272 15.1615 3.20601 16.0031C4.04068 16.8448 5.02122 17.5132 6.14765 18.0083C7.27407 18.5035 8.48272 18.7507 9.7736 18.75Z" fill="#3D3D3D"/>
</svg>
