<svg width="20" height="17" viewBox="0 0 20 17" fill="none" xmlns="http://www.w3.org/2000/svg">
<path d="M13.5414 10.6029C12.6734 10.6029 11.9355 10.3055 11.3279 9.71073C10.7202 9.11596 10.4164 8.39374 10.4164 7.54408C10.4164 6.69441 10.7202 5.97219 11.3279 5.37742C11.9355 4.78265 12.6734 4.48527 13.5414 4.48527C14.4095 4.48527 15.1473 4.78265 15.755 5.37742C16.3626 5.97219 16.6664 6.69441 16.6664 7.54408C16.6664 8.39374 16.3626 9.11596 15.755 9.71073C15.1473 10.3055 14.4095 10.6029 13.5414 10.6029ZM7.29142 16.7205V14.7833C7.29142 14.4264 7.37823 14.0865 7.55184 13.7637C7.72545 13.4408 7.96851 13.1859 8.281 12.9989C9.06225 12.5401 9.89142 12.1962 10.7685 11.9671C11.6456 11.738 12.5699 11.6232 13.5414 11.6225C14.5136 11.6225 15.4383 11.7374 16.3154 11.9671C17.1925 12.1969 18.0213 12.5408 18.8018 12.9989C19.1143 13.1859 19.3574 13.4408 19.531 13.7637C19.7046 14.0865 19.7914 14.4264 19.7914 14.7833V16.7205H7.29142ZM9.531 14.6813H17.5518C16.9442 14.3414 16.3018 14.0865 15.6248 13.9166C14.9477 13.7467 14.2532 13.6617 13.5414 13.6617C12.8296 13.6617 12.1352 13.7467 11.4581 13.9166C10.781 14.0865 10.1386 14.3414 9.531 14.6813ZM13.5414 8.56368C13.8366 8.56368 14.0841 8.4658 14.2841 8.27003C14.4841 8.07427 14.5838 7.83228 14.5831 7.54408C14.5831 7.25519 14.4831 7.01286 14.2831 6.8171C14.0831 6.62134 13.8359 6.52379 13.5414 6.52447C13.2463 6.52447 12.9987 6.62236 12.7987 6.81812C12.5987 7.01388 12.4991 7.25587 12.4998 7.54408C12.4998 7.83296 12.5998 8.07529 12.7998 8.27105C12.9998 8.46682 13.247 8.56436 13.5414 8.56368ZM-0.000244141 10.6029V8.56368H8.33309V10.6029H-0.000244141ZM-0.000244141 2.44606V0.40686H12.4998V2.44606H-0.000244141ZM8.43726 6.52447H-0.000244141V4.48527H9.37476C9.1317 4.77416 8.93621 5.08853 8.7883 5.4284C8.64038 5.76827 8.52337 6.13363 8.43726 6.52447Z" fill="#333333"/>
</svg>
