<svg width="23" height="13" viewBox="0 0 23 13" fill="none" xmlns="http://www.w3.org/2000/svg">
<path d="M18.75 4.39422V3.18644H16.6667V1.97866H18.75V0.770874H20.8333V1.97866H22.9167V3.18644H20.8333V4.39422H18.75ZM2.08333 12.8487C1.51042 12.8487 1.01979 12.7303 0.61146 12.4936C0.203127 12.2569 -0.000692676 11.9726 1.76853e-06 11.6409V4.39422C1.76853e-06 4.06208 0.204168 3.77765 0.612502 3.54092C1.02084 3.3042 1.51111 3.18603 2.08333 3.18644H5.36459L7.29167 1.97866H13.5417V3.18644H8.20313L6.30209 4.39422H2.08333V11.6409H18.75V6.20589H20.8333V11.6409C20.8333 11.973 20.6292 12.2575 20.2208 12.4942C19.8125 12.7309 19.3222 12.8491 18.75 12.8487H2.08333ZM10.4167 10.7351C11.7188 10.7351 12.8257 10.4708 13.7375 9.94216C14.6493 9.41356 15.1049 8.77202 15.1042 8.01756C15.1042 7.2627 14.6483 6.62097 13.7365 6.09236C12.8247 5.56375 11.7181 5.29965 10.4167 5.30006C9.11458 5.30006 8.00764 5.56436 7.09583 6.09296C6.18403 6.62157 5.72847 7.2631 5.72917 8.01756C5.72917 8.77243 6.18507 9.41416 7.09688 9.94277C8.00868 10.4714 9.11528 10.7355 10.4167 10.7351ZM10.4167 9.52729C9.6875 9.52729 9.07118 9.38135 8.56771 9.08947C8.06424 8.79759 7.8125 8.44029 7.8125 8.01756C7.8125 7.59484 8.06424 7.23754 8.56771 6.94566C9.07118 6.65378 9.6875 6.50784 10.4167 6.50784C11.1458 6.50784 11.7622 6.65378 12.2656 6.94566C12.7691 7.23754 13.0208 7.59484 13.0208 8.01756C13.0208 8.44029 12.7691 8.79759 12.2656 9.08947C11.7622 9.38135 11.1458 9.52729 10.4167 9.52729Z" fill="#333333"/>
</svg>
