<svg width="19" height="21" viewBox="0 0 19 21" fill="none" xmlns="http://www.w3.org/2000/svg">
<path d="M0 18.75V14.5833C0 13.1424 0.507986 11.9139 1.52396 10.8979C2.53993 9.88194 3.76806 9.3743 5.20833 9.375H16.3802C17.0399 9.375 17.6 9.60069 18.0604 10.0521C18.5208 10.5035 18.7507 11.059 18.75 11.7188C18.75 12.2569 18.5851 12.7389 18.2552 13.1646C17.9253 13.5903 17.5087 13.8722 17.0052 14.0104L14.5833 14.7135V18.75C14.5833 19.1146 14.501 19.4444 14.3365 19.7396C14.1719 20.0347 13.9503 20.2778 13.6719 20.4687C13.3941 20.6597 13.0903 20.7771 12.7604 20.8208C12.4306 20.8646 12.092 20.8167 11.7448 20.6771L6.82292 18.75H0ZM12.5 15.625H6.64062C6.5191 15.625 6.42778 15.6597 6.36667 15.7292C6.30556 15.7986 6.26667 15.8767 6.25 15.9635C6.23264 16.0503 6.24583 16.133 6.28958 16.2115C6.33333 16.2899 6.40694 16.3462 6.51042 16.3802L12.5 18.75V15.625ZM2.08333 16.6667H4.27083C4.23611 16.5625 4.21007 16.4583 4.19271 16.3542C4.17535 16.25 4.16667 16.1372 4.16667 16.0156C4.16667 15.3385 4.40972 14.7569 4.89583 14.2708C5.38194 13.7847 5.96354 13.5417 6.64062 13.5417H10.8854L16.4583 12.0052C16.5451 11.9705 16.6059 11.9271 16.6406 11.875C16.6753 11.8229 16.684 11.7622 16.6667 11.6927C16.6493 11.6233 16.6187 11.5667 16.575 11.5229C16.5312 11.4792 16.4667 11.4576 16.3812 11.4583H5.20833C4.34028 11.4583 3.60243 11.7622 2.99479 12.3698C2.38715 12.9774 2.08333 13.7153 2.08333 14.5833V16.6667ZM7.29167 8.33333C6.14583 8.33333 5.16493 7.92535 4.34896 7.10937C3.53299 6.2934 3.125 5.3125 3.125 4.16667C3.125 3.02083 3.53299 2.03993 4.34896 1.22396C5.16493 0.407986 6.14583 0 7.29167 0C8.4375 0 9.4184 0.407986 10.2344 1.22396C11.0503 2.03993 11.4583 3.02083 11.4583 4.16667C11.4583 5.3125 11.0503 6.2934 10.2344 7.10937C9.4184 7.92535 8.4375 8.33333 7.29167 8.33333ZM7.29167 6.25C7.86458 6.25 8.35521 6.04583 8.76354 5.6375C9.17188 5.22917 9.37569 4.73889 9.375 4.16667C9.375 3.59375 9.17083 3.10312 8.7625 2.69479C8.35417 2.28646 7.86389 2.08264 7.29167 2.08333C6.71875 2.08333 6.22812 2.2875 5.81979 2.69583C5.41146 3.10417 5.20764 3.59444 5.20833 4.16667C5.20833 4.73958 5.4125 5.23021 5.82083 5.63854C6.22917 6.04688 6.71944 6.25069 7.29167 6.25Z" fill="#333333"/>
</svg>
