<svg width="17" height="12" viewBox="0 0 17 12" fill="none" xmlns="http://www.w3.org/2000/svg">
<path d="M3.125 11.8004C2.55208 11.8004 2.06146 11.682 1.65313 11.4453C1.24479 11.2086 1.04097 10.9243 1.04167 10.5926V2.74203H0V1.53425H5.20833V0.930359H11.4583V1.53425H16.6667V2.74203H15.625V10.5926C15.625 10.9248 15.4208 11.2092 15.0125 11.4459C14.6042 11.6826 14.1139 11.8008 13.5417 11.8004H3.125ZM13.5417 2.74203H3.125V10.5926H13.5417V2.74203Z" fill="#333333"/>
<path d="M7.12468 4.40874L9.20801 4.40874L9.20801 6.91489L10.8747 5.97886L12.333 6.8243L8.16634 9.23987L3.99967 6.8243L5.45801 5.97886L7.12467 6.91489L7.12468 4.40874Z" fill="#333333"/>
</svg>
