<svg width="1208" height="727" viewBox="0 0 1208 727" fill="none" xmlns="http://www.w3.org/2000/svg">
<g filter="url(#filter0_d_427_2476)">
<path d="M1204 716V50.9993C1204 48.2379 1201.76 45.9993 1199 45.9993H89.5C86.7386 45.9993 84.5 43.7607 84.5 40.9993V7C84.5 4.23858 82.2614 2 79.5 2H9C6.23858 2 4 4.23858 4 7V37.1994V716C4 718.761 6.23857 721 9 721H1199C1201.76 721 1204 718.761 1204 716Z" fill="white"/>
</g>
<path d="M33.126 23.2959H29.8564L29.8389 21.5908H32.6426C33.123 21.5908 33.5244 21.5234 33.8467 21.3887C34.1689 21.2539 34.4121 21.0576 34.5762 20.7998C34.7461 20.542 34.8311 20.2285 34.8311 19.8594C34.8311 19.4492 34.752 19.1152 34.5938 18.8574C34.4414 18.5996 34.2012 18.4121 33.873 18.2949C33.5449 18.1719 33.1289 18.1104 32.625 18.1104H30.6387V29H28.2217V16.2031H32.625C33.3516 16.2031 33.999 16.2734 34.5674 16.4141C35.1416 16.5488 35.6279 16.7598 36.0264 17.0469C36.4248 17.334 36.7266 17.6943 36.9316 18.1279C37.1426 18.5615 37.248 19.0771 37.248 19.6748C37.248 20.2021 37.125 20.6885 36.8789 21.1338C36.6387 21.5732 36.2666 21.9307 35.7627 22.2061C35.2646 22.4814 34.6318 22.6396 33.8643 22.6807L33.126 23.2959ZM33.0205 29H29.1445L30.1553 27.1016H33.0205C33.501 27.1016 33.8965 27.0225 34.207 26.8643C34.5234 26.7061 34.7578 26.4893 34.9102 26.2139C35.0684 25.9326 35.1475 25.6104 35.1475 25.2471C35.1475 24.8486 35.0771 24.5029 34.9365 24.21C34.8018 23.917 34.585 23.6914 34.2861 23.5332C33.9932 23.375 33.6064 23.2959 33.126 23.2959H30.6123L30.6299 21.5908H33.8291L34.3828 22.25C35.1211 22.2559 35.7217 22.4023 36.1846 22.6895C36.6533 22.9766 36.999 23.3457 37.2217 23.7969C37.4443 24.248 37.5557 24.7344 37.5557 25.2559C37.5557 26.0762 37.377 26.7646 37.0195 27.3213C36.668 27.8779 36.1523 28.2969 35.4727 28.5781C34.7988 28.8594 33.9814 29 33.0205 29ZM43.374 27.3477C43.7021 27.3477 43.9951 27.2832 44.2529 27.1543C44.5107 27.0254 44.7158 26.8438 44.8682 26.6094C45.0264 26.375 45.1113 26.1025 45.123 25.792H47.3115C47.2998 26.4365 47.1182 27.0137 46.7666 27.5234C46.415 28.0332 45.9463 28.4375 45.3604 28.7363C44.7803 29.0293 44.1299 29.1758 43.4092 29.1758C42.6768 29.1758 42.0381 29.0527 41.4932 28.8066C40.9482 28.5605 40.4941 28.2178 40.1309 27.7783C39.7734 27.3389 39.5039 26.8291 39.3223 26.249C39.1465 25.6689 39.0586 25.0479 39.0586 24.3857V24.1045C39.0586 23.4424 39.1465 22.8213 39.3223 22.2412C39.5039 21.6611 39.7734 21.1514 40.1309 20.7119C40.4941 20.2725 40.9482 19.9297 41.4932 19.6836C42.0381 19.4375 42.6738 19.3145 43.4004 19.3145C44.168 19.3145 44.8418 19.4639 45.4219 19.7627C46.0078 20.0615 46.4648 20.4834 46.793 21.0283C47.127 21.5732 47.2998 22.2148 47.3115 22.9531H45.123C45.1113 22.6133 45.0352 22.3086 44.8945 22.0391C44.7539 21.7695 44.5547 21.5527 44.2969 21.3887C44.0391 21.2246 43.7256 21.1426 43.3564 21.1426C42.9639 21.1426 42.6357 21.2246 42.3721 21.3887C42.1143 21.5527 41.9121 21.7783 41.7656 22.0654C41.625 22.3467 41.5254 22.6631 41.4668 23.0146C41.4141 23.3604 41.3877 23.7236 41.3877 24.1045V24.3857C41.3877 24.7725 41.4141 25.1416 41.4668 25.4932C41.5254 25.8447 41.625 26.1611 41.7656 26.4424C41.9121 26.7178 42.1143 26.9375 42.3721 27.1016C42.6357 27.2656 42.9697 27.3477 43.374 27.3477ZM53.1299 29.1758C52.4092 29.1758 51.7617 29.0586 51.1875 28.8242C50.6133 28.5898 50.124 28.2646 49.7197 27.8486C49.3213 27.4268 49.0137 26.9375 48.7969 26.3809C48.5859 25.8184 48.4805 25.2148 48.4805 24.5703V24.2188C48.4805 23.4863 48.5859 22.8213 48.7969 22.2236C49.0078 21.6201 49.3066 21.1016 49.6934 20.668C50.0801 20.2344 50.543 19.9004 51.082 19.666C51.6211 19.4316 52.2158 19.3145 52.8662 19.3145C53.54 19.3145 54.1348 19.4287 54.6504 19.6572C55.166 19.8799 55.5967 20.1963 55.9424 20.6064C56.2881 21.0166 56.5488 21.5088 56.7246 22.083C56.9004 22.6514 56.9883 23.2812 56.9883 23.9727V24.9482H49.5352V23.3486H54.7031V23.1729C54.6914 22.8037 54.6211 22.4668 54.4922 22.1621C54.3633 21.8516 54.1641 21.6055 53.8945 21.4238C53.625 21.2363 53.2764 21.1426 52.8486 21.1426C52.5029 21.1426 52.2012 21.2188 51.9434 21.3711C51.6914 21.5176 51.4805 21.7285 51.3105 22.0039C51.1465 22.2734 51.0234 22.5957 50.9414 22.9707C50.8594 23.3457 50.8184 23.7617 50.8184 24.2188V24.5703C50.8184 24.9688 50.8711 25.3379 50.9766 25.6777C51.0879 26.0176 51.249 26.3135 51.46 26.5654C51.6768 26.8115 51.9346 27.0049 52.2334 27.1455C52.5381 27.2803 52.8838 27.3477 53.2705 27.3477C53.7568 27.3477 54.1963 27.2539 54.5889 27.0664C54.9873 26.873 55.333 26.5889 55.626 26.2139L56.7949 27.4268C56.5957 27.7197 56.3262 28.001 55.9863 28.2705C55.6523 28.54 55.248 28.7598 54.7734 28.9297C54.2988 29.0938 53.751 29.1758 53.1299 29.1758Z" fill="#141414"/>
<path d="M109.144 24.333H105.848V22.4346H109.144C109.683 22.4346 110.119 22.3467 110.453 22.1709C110.793 21.9893 111.042 21.7432 111.2 21.4326C111.358 21.1162 111.438 20.7559 111.438 20.3516C111.438 19.959 111.358 19.5928 111.2 19.2529C111.042 18.9131 110.793 18.6377 110.453 18.4268C110.119 18.2158 109.683 18.1104 109.144 18.1104H106.639V29H104.222V16.2031H109.144C110.14 16.2031 110.989 16.3818 111.692 16.7393C112.401 17.0908 112.94 17.5801 113.31 18.207C113.685 18.8281 113.872 19.5371 113.872 20.334C113.872 21.1602 113.685 21.8721 113.31 22.4697C112.94 23.0674 112.401 23.5273 111.692 23.8496C110.989 24.1719 110.14 24.333 109.144 24.333ZM120.728 26.9785V22.5928C120.728 22.2705 120.672 21.9922 120.561 21.7578C120.449 21.5234 120.279 21.3418 120.051 21.2129C119.822 21.084 119.532 21.0195 119.181 21.0195C118.87 21.0195 118.598 21.0723 118.363 21.1777C118.135 21.2832 117.959 21.4326 117.836 21.626C117.713 21.8135 117.651 22.0303 117.651 22.2764H115.322C115.322 21.8838 115.416 21.5117 115.604 21.1602C115.791 20.8027 116.058 20.4863 116.403 20.2109C116.755 19.9297 117.174 19.71 117.66 19.5518C118.152 19.3936 118.703 19.3145 119.312 19.3145C120.033 19.3145 120.675 19.4375 121.237 19.6836C121.806 19.9238 122.251 20.2871 122.573 20.7734C122.901 21.2598 123.065 21.8721 123.065 22.6104V26.7588C123.065 27.2334 123.095 27.6406 123.153 27.9805C123.218 28.3145 123.312 28.6045 123.435 28.8506V29H121.07C120.959 28.7598 120.874 28.4551 120.815 28.0859C120.757 27.7109 120.728 27.3418 120.728 26.9785ZM121.053 23.208L121.07 24.5879H119.603C119.239 24.5879 118.92 24.626 118.645 24.7021C118.369 24.7725 118.144 24.8779 117.968 25.0186C117.792 25.1533 117.66 25.3174 117.572 25.5107C117.484 25.6982 117.44 25.9121 117.44 26.1523C117.44 26.3867 117.493 26.5977 117.599 26.7852C117.71 26.9727 117.868 27.1221 118.073 27.2334C118.284 27.3389 118.53 27.3916 118.812 27.3916C119.222 27.3916 119.579 27.3096 119.884 27.1455C120.188 26.9756 120.426 26.7705 120.596 26.5303C120.766 26.29 120.856 26.0615 120.868 25.8447L121.536 26.8467C121.454 27.0869 121.331 27.3418 121.167 27.6113C121.003 27.8809 120.792 28.1328 120.534 28.3672C120.276 28.6016 119.966 28.7949 119.603 28.9473C119.239 29.0996 118.817 29.1758 118.337 29.1758C117.722 29.1758 117.171 29.0527 116.685 28.8066C116.198 28.5605 115.814 28.2236 115.533 27.7959C115.252 27.3682 115.111 26.8818 115.111 26.3369C115.111 25.833 115.205 25.3877 115.393 25.001C115.58 24.6143 115.858 24.2891 116.228 24.0254C116.597 23.7559 117.054 23.5537 117.599 23.4189C118.149 23.2783 118.779 23.208 119.488 23.208H121.053ZM131.046 15.3154H132.927C132.927 15.8135 132.862 16.2324 132.733 16.5723C132.604 16.9062 132.405 17.1875 132.136 17.416C131.866 17.6387 131.521 17.8232 131.099 17.9697C130.677 18.1162 130.173 18.2451 129.587 18.3564C129.095 18.4561 128.661 18.6201 128.286 18.8486C127.911 19.0771 127.598 19.3906 127.346 19.7891C127.1 20.1875 126.921 20.6943 126.81 21.3096C126.698 21.9248 126.663 22.666 126.704 23.5332V24.043L124.885 24.2539V23.7441C124.885 22.6133 124.987 21.6289 125.192 20.791C125.397 19.9473 125.688 19.2383 126.062 18.6641C126.438 18.084 126.886 17.624 127.407 17.2842C127.935 16.9385 128.523 16.6953 129.174 16.5547C129.607 16.4668 129.962 16.376 130.237 16.2822C130.519 16.1885 130.724 16.0684 130.853 15.9219C130.981 15.7695 131.046 15.5674 131.046 15.3154ZM129.745 20.0264C130.384 20.0264 130.949 20.1377 131.441 20.3604C131.939 20.5771 132.358 20.8848 132.698 21.2832C133.038 21.6758 133.296 22.1416 133.472 22.6807C133.653 23.2139 133.744 23.7969 133.744 24.4297V24.6143C133.744 25.2705 133.645 25.877 133.445 26.4336C133.252 26.9902 132.968 27.4736 132.593 27.8838C132.218 28.2939 131.755 28.6133 131.204 28.8418C130.653 29.0703 130.023 29.1846 129.314 29.1846C128.611 29.1846 127.984 29.0645 127.434 28.8242C126.883 28.5781 126.417 28.2383 126.036 27.8047C125.655 27.3711 125.368 26.8613 125.175 26.2754C124.981 25.6836 124.885 25.0391 124.885 24.3418V24.1572C124.879 24.04 124.917 23.9287 124.999 23.8232C125.081 23.7178 125.178 23.6006 125.289 23.4717C125.406 23.3428 125.512 23.1875 125.605 23.0059C125.928 22.3848 126.291 21.8516 126.695 21.4062C127.105 20.9609 127.562 20.6211 128.066 20.3867C128.57 20.1465 129.13 20.0264 129.745 20.0264ZM129.297 21.8545C128.799 21.8545 128.395 21.9746 128.084 22.2148C127.779 22.4492 127.557 22.7627 127.416 23.1553C127.275 23.542 127.205 23.9668 127.205 24.4297V24.6143C127.205 24.9893 127.243 25.3438 127.319 25.6777C127.401 26.0059 127.524 26.2959 127.688 26.5479C127.853 26.7998 128.069 26.999 128.339 27.1455C128.608 27.2861 128.934 27.3564 129.314 27.3564C129.695 27.3564 130.018 27.2861 130.281 27.1455C130.551 26.999 130.768 26.7998 130.932 26.5479C131.096 26.2959 131.216 26.0059 131.292 25.6777C131.374 25.3438 131.415 24.9893 131.415 24.6143V24.4297C131.415 24.084 131.374 23.7559 131.292 23.4453C131.216 23.1348 131.096 22.8623 130.932 22.6279C130.768 22.3877 130.548 22.2002 130.272 22.0654C130.003 21.9248 129.678 21.8545 129.297 21.8545ZM134.939 24.3418V24.1572C134.939 23.46 135.039 22.8184 135.238 22.2324C135.438 21.6406 135.728 21.1279 136.108 20.6943C136.489 20.2607 136.955 19.9238 137.506 19.6836C138.057 19.4375 138.684 19.3145 139.387 19.3145C140.102 19.3145 140.734 19.4375 141.285 19.6836C141.842 19.9238 142.311 20.2607 142.691 20.6943C143.072 21.1279 143.362 21.6406 143.562 22.2324C143.761 22.8184 143.86 23.46 143.86 24.1572V24.3418C143.86 25.0332 143.761 25.6748 143.562 26.2666C143.362 26.8525 143.072 27.3652 142.691 27.8047C142.311 28.2383 141.845 28.5752 141.294 28.8154C140.743 29.0557 140.113 29.1758 139.404 29.1758C138.701 29.1758 138.071 29.0557 137.515 28.8154C136.958 28.5752 136.489 28.2383 136.108 27.8047C135.728 27.3652 135.438 26.8525 135.238 26.2666C135.039 25.6748 134.939 25.0332 134.939 24.3418ZM137.26 24.1572V24.3418C137.26 24.7578 137.301 25.1475 137.383 25.5107C137.465 25.874 137.591 26.1934 137.761 26.4688C137.931 26.7441 138.15 26.9609 138.42 27.1191C138.695 27.2715 139.023 27.3477 139.404 27.3477C139.779 27.3477 140.102 27.2715 140.371 27.1191C140.641 26.9609 140.86 26.7441 141.03 26.4688C141.206 26.1934 141.335 25.874 141.417 25.5107C141.499 25.1475 141.54 24.7578 141.54 24.3418V24.1572C141.54 23.7471 141.499 23.3633 141.417 23.0059C141.335 22.6426 141.206 22.3232 141.03 22.0479C140.86 21.7666 140.638 21.5469 140.362 21.3887C140.093 21.2246 139.768 21.1426 139.387 21.1426C139.012 21.1426 138.689 21.2246 138.42 21.3887C138.15 21.5469 137.931 21.7666 137.761 22.0479C137.591 22.3232 137.465 22.6426 137.383 23.0059C137.301 23.3633 137.26 23.7471 137.26 24.1572ZM149.934 19.4902V29H147.604V19.4902H149.934ZM153.027 19.4902V21.3008H144.563V19.4902H153.027ZM159.487 26.9785V22.5928C159.487 22.2705 159.432 21.9922 159.32 21.7578C159.209 21.5234 159.039 21.3418 158.811 21.2129C158.582 21.084 158.292 21.0195 157.94 21.0195C157.63 21.0195 157.357 21.0723 157.123 21.1777C156.895 21.2832 156.719 21.4326 156.596 21.626C156.473 21.8135 156.411 22.0303 156.411 22.2764H154.082C154.082 21.8838 154.176 21.5117 154.363 21.1602C154.551 20.8027 154.817 20.4863 155.163 20.2109C155.515 19.9297 155.934 19.71 156.42 19.5518C156.912 19.3936 157.463 19.3145 158.072 19.3145C158.793 19.3145 159.435 19.4375 159.997 19.6836C160.565 19.9238 161.011 20.2871 161.333 20.7734C161.661 21.2598 161.825 21.8721 161.825 22.6104V26.7588C161.825 27.2334 161.854 27.6406 161.913 27.9805C161.978 28.3145 162.071 28.6045 162.194 28.8506V29H159.83C159.719 28.7598 159.634 28.4551 159.575 28.0859C159.517 27.7109 159.487 27.3418 159.487 26.9785ZM159.812 23.208L159.83 24.5879H158.362C157.999 24.5879 157.68 24.626 157.404 24.7021C157.129 24.7725 156.903 24.8779 156.728 25.0186C156.552 25.1533 156.42 25.3174 156.332 25.5107C156.244 25.6982 156.2 25.9121 156.2 26.1523C156.2 26.3867 156.253 26.5977 156.358 26.7852C156.47 26.9727 156.628 27.1221 156.833 27.2334C157.044 27.3389 157.29 27.3916 157.571 27.3916C157.981 27.3916 158.339 27.3096 158.644 27.1455C158.948 26.9756 159.186 26.7705 159.355 26.5303C159.525 26.29 159.616 26.0615 159.628 25.8447L160.296 26.8467C160.214 27.0869 160.091 27.3418 159.927 27.6113C159.763 27.8809 159.552 28.1328 159.294 28.3672C159.036 28.6016 158.726 28.7949 158.362 28.9473C157.999 29.0996 157.577 29.1758 157.097 29.1758C156.481 29.1758 155.931 29.0527 155.444 28.8066C154.958 28.5605 154.574 28.2236 154.293 27.7959C154.012 27.3682 153.871 26.8818 153.871 26.3369C153.871 25.833 153.965 25.3877 154.152 25.001C154.34 24.6143 154.618 24.2891 154.987 24.0254C155.356 23.7559 155.813 23.5537 156.358 23.4189C156.909 23.2783 157.539 23.208 158.248 23.208H159.812ZM169.577 23.252V25.0889H164.462V23.252H169.577ZM166.431 19.4902V29H164.102V19.4902H166.431ZM167.942 24.3418V24.1572C167.942 23.46 168.042 22.8184 168.241 22.2324C168.44 21.6406 168.73 21.1279 169.111 20.6943C169.492 20.2607 169.958 19.9238 170.509 19.6836C171.06 19.4375 171.687 19.3145 172.39 19.3145C173.104 19.3145 173.737 19.4375 174.288 19.6836C174.845 19.9238 175.313 20.2607 175.694 20.6943C176.081 21.1279 176.371 21.6406 176.564 22.2324C176.764 22.8184 176.863 23.46 176.863 24.1572V24.3418C176.863 25.0332 176.764 25.6748 176.564 26.2666C176.371 26.8525 176.084 27.3652 175.703 27.8047C175.322 28.2383 174.854 28.5752 174.297 28.8154C173.746 29.0557 173.116 29.1758 172.407 29.1758C171.698 29.1758 171.068 29.0557 170.518 28.8154C169.967 28.5752 169.498 28.2383 169.111 27.8047C168.73 27.3652 168.44 26.8525 168.241 26.2666C168.042 25.6748 167.942 25.0332 167.942 24.3418ZM170.263 24.1572V24.3418C170.263 24.7578 170.304 25.1475 170.386 25.5107C170.468 25.874 170.594 26.1934 170.764 26.4688C170.939 26.7441 171.162 26.9609 171.432 27.1191C171.701 27.2715 172.026 27.3477 172.407 27.3477C172.788 27.3477 173.113 27.2715 173.383 27.1191C173.652 26.9609 173.872 26.7441 174.042 26.4688C174.212 26.1934 174.338 25.874 174.42 25.5107C174.502 25.1475 174.543 24.7578 174.543 24.3418V24.1572C174.543 23.7471 174.502 23.3633 174.42 23.0059C174.338 22.6426 174.209 22.3232 174.033 22.0479C173.863 21.7666 173.641 21.5469 173.365 21.3887C173.096 21.2246 172.771 21.1426 172.39 21.1426C172.015 21.1426 171.692 21.2246 171.423 21.3887C171.159 21.5469 170.939 21.7666 170.764 22.0479C170.594 22.3232 170.468 22.6426 170.386 23.0059C170.304 23.3633 170.263 23.7471 170.263 24.1572ZM192.93 27.1807L192.763 31.8213H190.609V29H189.502V27.1807H192.93ZM178.524 19.4902H180.845V27.1719H183.675V19.4902H186.004V27.1719H188.825V19.4902H191.154V29H178.524V19.4902ZM196.814 25.6865L200.277 19.4902H202.606V29H200.277V22.7949L196.814 29H194.485V19.4902H196.814V25.6865ZM208.987 29.1758C208.267 29.1758 207.619 29.0586 207.045 28.8242C206.471 28.5898 205.981 28.2646 205.577 27.8486C205.179 27.4268 204.871 26.9375 204.654 26.3809C204.443 25.8184 204.338 25.2148 204.338 24.5703V24.2188C204.338 23.4863 204.443 22.8213 204.654 22.2236C204.865 21.6201 205.164 21.1016 205.551 20.668C205.938 20.2344 206.4 19.9004 206.939 19.666C207.479 19.4316 208.073 19.3145 208.724 19.3145C209.397 19.3145 209.992 19.4287 210.508 19.6572C211.023 19.8799 211.454 20.1963 211.8 20.6064C212.146 21.0166 212.406 21.5088 212.582 22.083C212.758 22.6514 212.846 23.2812 212.846 23.9727V24.9482H205.393V23.3486H210.561V23.1729C210.549 22.8037 210.479 22.4668 210.35 22.1621C210.221 21.8516 210.021 21.6055 209.752 21.4238C209.482 21.2363 209.134 21.1426 208.706 21.1426C208.36 21.1426 208.059 21.2188 207.801 21.3711C207.549 21.5176 207.338 21.7285 207.168 22.0039C207.004 22.2734 206.881 22.5957 206.799 22.9707C206.717 23.3457 206.676 23.7617 206.676 24.2188V24.5703C206.676 24.9688 206.729 25.3379 206.834 25.6777C206.945 26.0176 207.106 26.3135 207.317 26.5654C207.534 26.8115 207.792 27.0049 208.091 27.1455C208.396 27.2803 208.741 27.3477 209.128 27.3477C209.614 27.3477 210.054 27.2539 210.446 27.0664C210.845 26.873 211.19 26.5889 211.483 26.2139L212.652 27.4268C212.453 27.7197 212.184 28.001 211.844 28.2705C211.51 28.54 211.105 28.7598 210.631 28.9297C210.156 29.0938 209.608 29.1758 208.987 29.1758Z" fill="#4D89FF"/>
<path d="M264.229 24.4561L267.429 16.2031H270.057L265.645 26.6006C265.498 26.9346 265.331 27.2568 265.144 27.5674C264.956 27.8779 264.73 28.1562 264.467 28.4023C264.209 28.6426 263.896 28.833 263.526 28.9736C263.163 29.1143 262.724 29.1846 262.208 29.1846C262.073 29.1846 261.912 29.1787 261.725 29.167C261.537 29.1611 261.394 29.1523 261.294 29.1406V27.2422C261.364 27.2598 261.479 27.2715 261.637 27.2773C261.801 27.2832 261.918 27.2861 261.988 27.2861C262.328 27.2861 262.598 27.2334 262.797 27.1279C263.002 27.0166 263.163 26.8672 263.28 26.6797C263.403 26.4863 263.512 26.2666 263.605 26.0205L264.229 24.4561ZM261.962 16.2031L265.029 22.9092L265.75 25.5195L263.913 25.5723L259.343 16.2031H261.962ZM275.796 24.9746H272.781L272.764 23.4014H275.242C275.611 23.4014 275.913 23.3633 276.147 23.2871C276.382 23.2109 276.555 23.0967 276.666 22.9443C276.783 22.792 276.842 22.6074 276.842 22.3906C276.842 22.2031 276.807 22.042 276.736 21.9072C276.666 21.7666 276.561 21.6523 276.42 21.5645C276.285 21.4766 276.112 21.4121 275.901 21.3711C275.696 21.3242 275.456 21.3008 275.181 21.3008H273.607V29H271.278V19.4902H275.181C275.796 19.4902 276.35 19.5459 276.842 19.6572C277.334 19.7627 277.753 19.9238 278.099 20.1406C278.444 20.3574 278.708 20.6328 278.89 20.9668C279.077 21.2949 279.171 21.6816 279.171 22.127C279.171 22.4199 279.106 22.6953 278.978 22.9531C278.849 23.2109 278.658 23.4395 278.406 23.6387C278.154 23.8379 277.844 24.002 277.475 24.1309C277.105 24.2539 276.684 24.3301 276.209 24.3594L275.796 24.9746ZM275.796 29H272.157L273.019 27.1895H275.796C276.136 27.1895 276.417 27.1484 276.64 27.0664C276.862 26.9785 277.026 26.8525 277.132 26.6885C277.243 26.5244 277.299 26.3252 277.299 26.0908C277.299 25.8623 277.246 25.666 277.141 25.502C277.041 25.332 276.88 25.2031 276.657 25.1152C276.44 25.0215 276.153 24.9746 275.796 24.9746H273.396L273.414 23.4014H276.2L276.815 24.0254C277.448 24.0664 277.973 24.1953 278.389 24.4121C278.805 24.623 279.115 24.8926 279.32 25.2207C279.525 25.543 279.628 25.8975 279.628 26.2842C279.628 26.7354 279.543 27.1309 279.373 27.4707C279.203 27.8105 278.954 28.0947 278.626 28.3232C278.298 28.5459 277.896 28.7158 277.422 28.833C276.947 28.9443 276.405 29 275.796 29ZM280.902 24.3418V24.1572C280.902 23.46 281.002 22.8184 281.201 22.2324C281.4 21.6406 281.69 21.1279 282.071 20.6943C282.452 20.2607 282.918 19.9238 283.469 19.6836C284.02 19.4375 284.646 19.3145 285.35 19.3145C286.064 19.3145 286.697 19.4375 287.248 19.6836C287.805 19.9238 288.273 20.2607 288.654 20.6943C289.035 21.1279 289.325 21.6406 289.524 22.2324C289.724 22.8184 289.823 23.46 289.823 24.1572V24.3418C289.823 25.0332 289.724 25.6748 289.524 26.2666C289.325 26.8525 289.035 27.3652 288.654 27.8047C288.273 28.2383 287.808 28.5752 287.257 28.8154C286.706 29.0557 286.076 29.1758 285.367 29.1758C284.664 29.1758 284.034 29.0557 283.478 28.8154C282.921 28.5752 282.452 28.2383 282.071 27.8047C281.69 27.3652 281.4 26.8525 281.201 26.2666C281.002 25.6748 280.902 25.0332 280.902 24.3418ZM283.223 24.1572V24.3418C283.223 24.7578 283.264 25.1475 283.346 25.5107C283.428 25.874 283.554 26.1934 283.724 26.4688C283.894 26.7441 284.113 26.9609 284.383 27.1191C284.658 27.2715 284.986 27.3477 285.367 27.3477C285.742 27.3477 286.064 27.2715 286.334 27.1191C286.604 26.9609 286.823 26.7441 286.993 26.4688C287.169 26.1934 287.298 25.874 287.38 25.5107C287.462 25.1475 287.503 24.7578 287.503 24.3418V24.1572C287.503 23.7471 287.462 23.3633 287.38 23.0059C287.298 22.6426 287.169 22.3232 286.993 22.0479C286.823 21.7666 286.601 21.5469 286.325 21.3887C286.056 21.2246 285.73 21.1426 285.35 21.1426C284.975 21.1426 284.652 21.2246 284.383 21.3887C284.113 21.5469 283.894 21.7666 283.724 22.0479C283.554 22.3232 283.428 22.6426 283.346 23.0059C283.264 23.3633 283.223 23.7471 283.223 24.1572ZM297.76 19.4902V21.3271H293.102V19.4902H297.76ZM299.509 19.4902V29H297.188V19.4902H299.509ZM292.521 19.4902H294.815L294.561 24.2363C294.52 24.9336 294.446 25.5459 294.341 26.0732C294.235 26.5947 294.095 27.043 293.919 27.418C293.743 27.7871 293.529 28.0889 293.277 28.3232C293.025 28.5576 292.732 28.7305 292.398 28.8418C292.07 28.9473 291.701 29 291.291 29H290.579L290.553 27.1279L290.887 27.1016C291.092 27.084 291.268 27.0283 291.414 26.9346C291.566 26.8408 291.695 26.7061 291.801 26.5303C291.912 26.3545 292.003 26.1289 292.073 25.8535C292.149 25.5723 292.208 25.2441 292.249 24.8691C292.296 24.4883 292.328 24.0488 292.346 23.5508L292.521 19.4902ZM305.907 29.1758C305.187 29.1758 304.539 29.0586 303.965 28.8242C303.391 28.5898 302.901 28.2646 302.497 27.8486C302.099 27.4268 301.791 26.9375 301.574 26.3809C301.363 25.8184 301.258 25.2148 301.258 24.5703V24.2188C301.258 23.4863 301.363 22.8213 301.574 22.2236C301.785 21.6201 302.084 21.1016 302.471 20.668C302.857 20.2344 303.32 19.9004 303.859 19.666C304.398 19.4316 304.993 19.3145 305.644 19.3145C306.317 19.3145 306.912 19.4287 307.428 19.6572C307.943 19.8799 308.374 20.1963 308.72 20.6064C309.065 21.0166 309.326 21.5088 309.502 22.083C309.678 22.6514 309.766 23.2812 309.766 23.9727V24.9482H302.312V23.3486H307.48V23.1729C307.469 22.8037 307.398 22.4668 307.27 22.1621C307.141 21.8516 306.941 21.6055 306.672 21.4238C306.402 21.2363 306.054 21.1426 305.626 21.1426C305.28 21.1426 304.979 21.2188 304.721 21.3711C304.469 21.5176 304.258 21.7285 304.088 22.0039C303.924 22.2734 303.801 22.5957 303.719 22.9707C303.637 23.3457 303.596 23.7617 303.596 24.2188V24.5703C303.596 24.9688 303.648 25.3379 303.754 25.6777C303.865 26.0176 304.026 26.3135 304.237 26.5654C304.454 26.8115 304.712 27.0049 305.011 27.1455C305.315 27.2803 305.661 27.3477 306.048 27.3477C306.534 27.3477 306.974 27.2539 307.366 27.0664C307.765 26.873 308.11 26.5889 308.403 26.2139L309.572 27.4268C309.373 27.7197 309.104 28.001 308.764 28.2705C308.43 28.54 308.025 28.7598 307.551 28.9297C307.076 29.0938 306.528 29.1758 305.907 29.1758ZM317.816 23.3926V25.2119H312.938V23.3926H317.816ZM313.668 19.4902V29H311.339V19.4902H313.668ZM319.442 19.4902V29H317.104V19.4902H319.442ZM328.047 23.3926V25.2119H323.169V23.3926H328.047ZM323.898 19.4902V29H321.569V19.4902H323.898ZM329.673 19.4902V29H327.335V19.4902H329.673ZM333.435 22.417H336.212C337.056 22.417 337.773 22.5576 338.365 22.8389C338.963 23.1143 339.417 23.501 339.728 23.999C340.044 24.4912 340.202 25.0625 340.202 25.7129C340.202 26.1816 340.111 26.6182 339.93 27.0225C339.754 27.4209 339.496 27.7695 339.156 28.0684C338.816 28.3613 338.397 28.5898 337.899 28.7539C337.407 28.918 336.845 29 336.212 29H331.94V19.4902H334.27V27.1807H336.212C336.616 27.1807 336.938 27.1133 337.179 26.9785C337.425 26.8379 337.601 26.6592 337.706 26.4424C337.817 26.2197 337.873 25.9824 337.873 25.7305C337.873 25.4727 337.817 25.2324 337.706 25.0098C337.601 24.7812 337.425 24.5967 337.179 24.4561C336.938 24.3154 336.616 24.2451 336.212 24.2451H333.435V22.417ZM344.104 19.4902V29H341.775V19.4902H344.104ZM350.749 29.1758C350.028 29.1758 349.381 29.0586 348.807 28.8242C348.232 28.5898 347.743 28.2646 347.339 27.8486C346.94 27.4268 346.633 26.9375 346.416 26.3809C346.205 25.8184 346.1 25.2148 346.1 24.5703V24.2188C346.1 23.4863 346.205 22.8213 346.416 22.2236C346.627 21.6201 346.926 21.1016 347.312 20.668C347.699 20.2344 348.162 19.9004 348.701 19.666C349.24 19.4316 349.835 19.3145 350.485 19.3145C351.159 19.3145 351.754 19.4287 352.27 19.6572C352.785 19.8799 353.216 20.1963 353.562 20.6064C353.907 21.0166 354.168 21.5088 354.344 22.083C354.52 22.6514 354.607 23.2812 354.607 23.9727V24.9482H347.154V23.3486H352.322V23.1729C352.311 22.8037 352.24 22.4668 352.111 22.1621C351.982 21.8516 351.783 21.6055 351.514 21.4238C351.244 21.2363 350.896 21.1426 350.468 21.1426C350.122 21.1426 349.82 21.2188 349.562 21.3711C349.311 21.5176 349.1 21.7285 348.93 22.0039C348.766 22.2734 348.643 22.5957 348.561 22.9707C348.479 23.3457 348.438 23.7617 348.438 24.2188V24.5703C348.438 24.9688 348.49 25.3379 348.596 25.6777C348.707 26.0176 348.868 26.3135 349.079 26.5654C349.296 26.8115 349.554 27.0049 349.853 27.1455C350.157 27.2803 350.503 27.3477 350.89 27.3477C351.376 27.3477 351.815 27.2539 352.208 27.0664C352.606 26.873 352.952 26.5889 353.245 26.2139L354.414 27.4268C354.215 27.7197 353.945 28.001 353.605 28.2705C353.271 28.54 352.867 28.7598 352.393 28.9297C351.918 29.0938 351.37 29.1758 350.749 29.1758Z" fill="#4D89FF"/>
<defs>
<filter id="filter0_d_427_2476" x="0" y="0" width="1208" height="727" filterUnits="userSpaceOnUse" color-interpolation-filters="sRGB">
<feFlood flood-opacity="0" result="BackgroundImageFix"/>
<feColorMatrix in="SourceAlpha" type="matrix" values="0 0 0 0 0 0 0 0 0 0 0 0 0 0 0 0 0 0 127 0" result="hardAlpha"/>
<feOffset dy="2"/>
<feGaussianBlur stdDeviation="2"/>
<feComposite in2="hardAlpha" operator="out"/>
<feColorMatrix type="matrix" values="0 0 0 0 0 0 0 0 0 0 0 0 0 0 0 0 0 0 0.25 0"/>
<feBlend mode="normal" in2="BackgroundImageFix" result="effect1_dropShadow_427_2476"/>
<feBlend mode="normal" in="SourceGraphic" in2="effect1_dropShadow_427_2476" result="shape"/>
</filter>
</defs>
</svg>
