<svg width="21" height="22" viewBox="0 0 21 22" fill="none" xmlns="http://www.w3.org/2000/svg">
<path d="M10.4167 21.3341C8.99306 21.3341 7.64757 21.0662 6.38021 20.5306C5.11285 19.995 4.0059 19.2643 3.05938 18.3385C2.11354 17.4127 1.36702 16.3295 0.819793 15.089C0.272571 13.8485 -0.000693124 12.5315 1.32024e-06 11.138C1.32024e-06 9.72759 0.273612 8.40211 0.820835 7.16159C1.36806 5.92107 2.11458 4.842 3.06042 3.92435C4.00625 3.00671 5.1125 2.28041 6.37917 1.74546C7.64583 1.21051 8.99167 0.942696 10.4167 0.942017C11.8576 0.942017 13.2118 1.20983 14.4792 1.74546C15.7465 2.28109 16.849 3.00739 17.7865 3.92435C18.724 4.842 19.4663 5.92107 20.0135 7.16159C20.5608 8.40211 20.834 9.72759 20.8333 11.138C20.8333 12.5315 20.5597 13.8485 20.0125 15.089C19.4653 16.3295 18.7233 17.413 17.7865 18.3395C16.849 19.2653 15.7465 19.996 14.4792 20.5316C13.2118 21.0673 11.8576 21.3347 10.4167 21.3341ZM10.4167 19.2949C12.7431 19.2949 14.7181 18.4962 16.3417 16.8988C17.9653 15.3014 18.7681 13.3642 18.75 11.0871C17.5174 10.9681 16.5712 10.5902 15.9115 9.95326C15.2517 9.31635 14.6875 8.53873 14.2188 7.62041C14.1319 7.43348 14.0059 7.29312 13.8406 7.19932C13.6753 7.10551 13.4976 7.05895 13.3073 7.05963H7.55208C7.34375 7.05963 7.15729 7.10653 6.99271 7.20034C6.82813 7.29414 6.70209 7.43416 6.61458 7.62041C6.14583 8.55505 5.57292 9.34116 4.89583 9.97875C4.21875 10.6163 3.28125 10.9943 2.08333 11.1125C2.08333 13.3897 2.89479 15.3228 4.51771 16.912C6.14063 18.5013 8.10695 19.2955 10.4167 19.2949ZM7.29167 13.4321C6.92708 13.4321 6.61875 13.3088 6.36667 13.062C6.11458 12.8153 5.98889 12.5138 5.98958 12.1576C5.98958 11.8008 6.11563 11.499 6.36771 11.2522C6.61979 11.0055 6.92778 10.8825 7.29167 10.8831C7.65625 10.8831 7.96458 11.0065 8.21667 11.2533C8.46875 11.5 8.59445 11.8015 8.59375 12.1576C8.59375 12.5145 8.46771 12.8163 8.21563 13.063C7.96354 13.3098 7.65556 13.4328 7.29167 13.4321ZM13.5417 13.4321C13.1771 13.4321 12.8688 13.3088 12.6167 13.062C12.3646 12.8153 12.2389 12.5138 12.2396 12.1576C12.2396 11.8008 12.3656 11.499 12.6177 11.2522C12.8698 11.0055 13.1778 10.8825 13.5417 10.8831C13.9062 10.8831 14.2146 11.0065 14.4667 11.2533C14.7188 11.5 14.8444 11.8015 14.8438 12.1576C14.8438 12.5145 14.7177 12.8163 14.4656 13.063C14.2135 13.3098 13.9056 13.4328 13.5417 13.4321Z" fill="#333333"/>
</svg>
