<svg width="19" height="22" viewBox="0 0 19 22" fill="none" xmlns="http://www.w3.org/2000/svg">
<path d="M9.375 4.8632C8.80208 4.8632 8.31146 4.66336 7.90312 4.26367C7.49479 3.86399 7.29097 3.3841 7.29167 2.824C7.29167 2.26322 7.49583 1.78298 7.90417 1.3833C8.3125 0.983614 8.80278 0.784112 9.375 0.784792C9.94792 0.784792 10.4385 0.984634 10.8469 1.38432C11.2552 1.784 11.459 2.26389 11.4583 2.824C11.4583 3.38478 11.2542 3.86501 10.8458 4.26469C10.4375 4.66438 9.94722 4.86388 9.375 4.8632ZM6.25 21.1768V7.92201C5.20833 7.83704 4.14931 7.70959 3.07292 7.53966C1.99653 7.36972 0.972222 7.15731 0 6.90241L0.520833 4.8632C1.875 5.22006 3.31597 5.47938 4.84375 5.64116C6.37153 5.80293 7.88194 5.88348 9.375 5.8828C10.8681 5.8828 12.3785 5.80192 13.9062 5.64014C15.434 5.47836 16.875 5.21938 18.2292 4.8632L18.75 6.90241C17.7778 7.15731 16.7535 7.36972 15.6771 7.53966C14.6007 7.70959 13.5417 7.83704 12.5 7.92201V21.1768H10.4167V15.0592H8.33333V21.1768H6.25Z" fill="#333333"/>
</svg>
