<svg width="17" height="21" viewBox="0 0 17 21" fill="none" xmlns="http://www.w3.org/2000/svg">
<path d="M8.33333 10.4167C8.90625 10.4167 9.39687 10.2125 9.80521 9.80417C10.2135 9.39583 10.4174 8.90555 10.4167 8.33333C10.4167 7.76042 10.2125 7.26979 9.80417 6.86146C9.39583 6.45312 8.90555 6.24931 8.33333 6.25C7.76042 6.25 7.26979 6.45417 6.86146 6.8625C6.45312 7.27083 6.24931 7.76111 6.25 8.33333C6.25 8.90625 6.45417 9.39687 6.8625 9.80521C7.27083 10.2135 7.76111 10.4174 8.33333 10.4167ZM8.33333 18.0729C10.4514 16.1285 12.0226 14.3618 13.0469 12.7729C14.0712 11.184 14.5833 9.77361 14.5833 8.54167C14.5833 6.6493 13.9799 5.1 12.7729 3.89375C11.566 2.6875 10.0861 2.08403 8.33333 2.08333C6.57986 2.08333 5.09965 2.68681 3.89271 3.89375C2.68576 5.10069 2.08264 6.65 2.08333 8.54167C2.08333 9.77431 2.59549 11.1851 3.61979 12.774C4.6441 14.3628 6.21528 16.1292 8.33333 18.0729ZM8.33333 20.8333C5.53819 18.4549 3.45069 16.2458 2.07083 14.2062C0.690972 12.1667 0.000694444 10.2785 0 8.54167C0 5.9375 0.837847 3.86285 2.51354 2.31771C4.18924 0.772569 6.12917 0 8.33333 0C10.5382 0 12.4785 0.772569 14.1542 2.31771C15.8299 3.86285 16.6674 5.9375 16.6667 8.54167C16.6667 10.2778 15.9764 12.166 14.5958 14.2062C13.2153 16.2465 11.1278 18.4556 8.33333 20.8333Z" fill="#155783"/>
</svg>
