<svg width="25" height="25" viewBox="0 0 25 25" fill="none" xmlns="http://www.w3.org/2000/svg">
<path d="M19.8439 22.5L16.797 19.4792L14.5054 21.7708L13.7762 21.0417C13.3769 20.6424 13.1772 20.1476 13.1772 19.5573C13.1772 18.967 13.3769 18.4722 13.7762 18.0729L18.1772 13.6719C18.5766 13.2726 19.0713 13.0729 19.6616 13.0729C20.2519 13.0729 20.7467 13.2726 21.146 13.6719L21.8752 14.401L19.5835 16.6927L22.6043 19.7396C22.8127 19.9479 22.9168 20.191 22.9168 20.4687C22.9168 20.7465 22.8127 20.9896 22.6043 21.1979L21.3022 22.5C21.0939 22.7083 20.8509 22.8125 20.5731 22.8125C20.2953 22.8125 20.0522 22.7083 19.8439 22.5ZM22.9168 6.14582L11.0939 17.9687L11.2241 18.0729C11.6234 18.4722 11.8231 18.967 11.8231 19.5573C11.8231 20.1476 11.6234 20.6424 11.2241 21.0417L10.495 21.7708L8.20329 19.4792L5.15641 22.5C4.94808 22.7083 4.70502 22.8125 4.42725 22.8125C4.14947 22.8125 3.90641 22.7083 3.69808 22.5L2.396 21.1979C2.18766 20.9896 2.0835 20.7465 2.0835 20.4687C2.0835 20.191 2.18766 19.9479 2.396 19.7396L5.41683 16.6927L3.12516 14.401L3.85433 13.6719C4.25363 13.2726 4.74843 13.0729 5.3387 13.0729C5.92898 13.0729 6.42377 13.2726 6.82308 13.6719L6.92725 13.8021L18.7502 1.97916H22.9168V6.14582ZM7.23975 11.3021L2.0835 6.14582V1.97916H6.25016L11.4064 7.13541L9.92204 8.59374L5.39079 4.06249H4.16683V5.28645L8.69808 9.8177L7.23975 11.3021ZM9.63558 16.4844L20.8335 5.28645V4.06249H19.6095L8.41162 15.2604L9.63558 16.4844Z" fill="#333333"/>
</svg>
