<svg width="20" height="22" viewBox="0 0 20 22" fill="none" xmlns="http://www.w3.org/2000/svg">
<path id="Vector" d="M2.60417 21.0976C2.03125 21.0976 1.54063 20.8978 1.13229 20.4981C0.723959 20.0984 0.52014 19.6185 0.520834 19.0584H5.49479C3.86285 18.2597 2.53889 17.0913 1.52292 15.553C0.506945 14.0148 -0.000693733 12.2944 7.11521e-07 10.3918C7.11521e-07 9.04931 0.260417 7.7918 0.781251 6.61926C1.30208 5.44672 2.00972 4.4227 2.90417 3.5472C3.79722 2.67238 4.84306 1.98007 6.04167 1.47027C7.24028 0.960467 8.525 0.705566 9.89583 0.705566C11.2674 0.705566 12.5521 0.960467 13.75 1.47027C14.9479 1.98007 15.9941 2.67272 16.8885 3.54822C17.7823 4.42236 18.4896 5.44604 19.0104 6.61926C19.5312 7.79248 19.7917 9.04999 19.7917 10.3918C19.7917 12.295 19.2837 14.0158 18.2677 15.554C17.2517 17.0923 15.9285 18.2604 14.2979 19.0584H19.2708C19.2708 19.6192 19.0667 20.0994 18.6583 20.4991C18.25 20.8988 17.7597 21.0983 17.1875 21.0976H2.60417ZM9.89583 18.0388C12.066 18.0388 13.9108 17.2952 15.4302 15.8079C16.9497 14.3207 17.709 12.5153 17.7083 10.3918C17.7083 8.26762 16.9486 6.4619 15.4292 4.97464C13.9097 3.48738 12.0653 2.74409 9.89583 2.74477C7.7257 2.74477 5.8809 3.4884 4.36146 4.97566C2.84201 6.46292 2.08264 8.2683 2.08333 10.3918C2.08333 12.516 2.84306 14.3217 4.3625 15.8089C5.88195 17.2962 7.72639 18.0395 9.89583 18.0388ZM5 13.8329H8.95833V12.8388H6.53646L6.51042 12.7879C6.85764 12.448 7.14861 12.1676 7.38333 11.9467C7.61806 11.7258 7.80451 11.5473 7.94271 11.4114C8.25521 11.1055 8.4941 10.7996 8.65938 10.4937C8.82465 10.1879 8.90695 9.87349 8.90625 9.55062C8.90625 9.0918 8.72847 8.69245 8.37292 8.35258C8.01736 8.01272 7.52674 7.84278 6.90104 7.84278C6.22396 7.84278 5.74201 8.02121 5.45521 8.37807C5.1684 8.73493 4.99931 9.00683 4.94792 9.19376L5.96354 9.6016C5.9809 9.56761 6.05035 9.44016 6.17188 9.21925C6.2934 8.99833 6.52778 8.88787 6.875 8.88787C7.27431 8.88787 7.51319 8.99425 7.59167 9.20701C7.67014 9.41977 7.70903 9.5513 7.70833 9.6016C7.70833 9.73754 7.68229 9.87791 7.63021 10.0227C7.57812 10.1675 7.42188 10.384 7.16146 10.6722C7.00521 10.8421 6.71424 11.1354 6.28854 11.5521L5 12.8133V13.8329ZM12.3438 13.9604C13.125 13.9604 13.7372 13.6671 14.1802 13.0805C14.6233 12.4939 14.8444 11.7676 14.8438 10.9016C14.8438 10.0349 14.6181 9.30829 14.1667 8.72168C13.7153 8.13507 13.1076 7.8421 12.3438 7.84278C11.5625 7.84278 10.9507 8.13609 10.5083 8.7227C10.066 9.30931 9.84445 10.0356 9.84375 10.9016C9.84375 11.7683 10.0653 12.4949 10.5083 13.0815C10.9514 13.6681 11.5632 13.9611 12.3438 13.9604ZM12.3438 12.9153C11.8924 12.9153 11.5538 12.7155 11.3281 12.3158C11.1024 11.9161 10.9896 11.4447 10.9896 10.9016C10.9896 10.4937 11.0851 10.056 11.276 9.58834C11.467 9.12068 11.8229 8.88719 12.3438 8.88787C12.8646 8.88787 13.2205 9.1217 13.4115 9.58936C13.6024 10.057 13.6979 10.4944 13.6979 10.9016C13.6979 11.4454 13.5851 11.9171 13.3594 12.3168C13.1337 12.7165 12.7951 12.916 12.3438 12.9153Z" fill="#333333"/>
</svg>
