<svg width="19" height="22" viewBox="0 0 19 22" fill="none" xmlns="http://www.w3.org/2000/svg">
<path id="Vector" d="M9.375 4.94169C8.80208 4.94169 8.31146 4.74185 7.90312 4.34217C7.49479 3.94248 7.29097 3.46259 7.29167 2.90249C7.29167 2.34171 7.49583 1.86147 7.90417 1.46179C8.3125 1.06211 8.80278 0.862603 9.375 0.863283C9.94792 0.863283 10.4385 1.06313 10.8469 1.46281C11.2552 1.86249 11.459 2.34239 11.4583 2.90249C11.4583 3.46327 11.2542 3.9435 10.8458 4.34319C10.4375 4.74287 9.94722 4.94237 9.375 4.94169ZM6.25 21.2553V8.0005C5.20833 7.91553 4.14931 7.78808 3.07292 7.61815C1.99653 7.44821 0.972222 7.2358 0 6.9809L0.520833 4.94169C1.875 5.29855 3.31597 5.55787 4.84375 5.71965C6.37153 5.88143 7.88194 5.96197 9.375 5.96129C10.8681 5.96129 12.3785 5.88041 13.9062 5.71863C15.434 5.55685 16.875 5.29787 18.2292 4.94169L18.75 6.9809C17.7778 7.2358 16.7535 7.44821 15.6771 7.61815C14.6007 7.78808 13.5417 7.91553 12.5 8.0005V21.2553H10.4167V15.1377H8.33333V21.2553H6.25Z" fill="#333333"/>
</svg>
