<svg width="20" height="22" viewBox="0 0 20 22" fill="none" xmlns="http://www.w3.org/2000/svg">
<path d="M2.60417 21.0197C2.03125 21.0197 1.54063 20.8199 1.13229 20.4202C0.723959 20.0205 0.52014 19.5406 0.520834 18.9805H5.49479C3.86285 18.1818 2.53889 17.0134 1.52292 15.4751C0.506945 13.9369 -0.000693733 12.2165 7.11521e-07 10.3139C7.11521e-07 8.97143 0.260417 7.71392 0.781251 6.54138C1.30208 5.36884 2.00972 4.34482 2.90417 3.46932C3.79722 2.5945 4.84306 1.90219 6.04167 1.39239C7.24028 0.882586 8.525 0.627686 9.89583 0.627686C11.2674 0.627686 12.5521 0.882586 13.75 1.39239C14.9479 1.90219 15.9941 2.59484 16.8885 3.47034C17.7823 4.34448 18.4896 5.36816 19.0104 6.54138C19.5312 7.7146 19.7917 8.97211 19.7917 10.3139C19.7917 12.2172 19.2837 13.9379 18.2677 15.4762C17.2517 17.0144 15.9285 18.1825 14.2979 18.9805H19.2708C19.2708 19.5413 19.0667 20.0215 18.6583 20.4212C18.25 20.8209 17.7597 21.0204 17.1875 21.0197H2.60417ZM9.89583 17.9609C12.066 17.9609 13.9108 17.2173 15.4302 15.73C16.9497 14.2428 17.709 12.4374 17.7083 10.3139C17.7083 8.18974 16.9486 6.38402 15.4292 4.89676C13.9097 3.4095 12.0653 2.66621 9.89583 2.66689C7.7257 2.66689 5.8809 3.41052 4.36146 4.89778C2.84201 6.38504 2.08264 8.19042 2.08333 10.3139C2.08333 12.4381 2.84306 14.2438 4.3625 15.7311C5.88195 17.2183 7.72639 17.9616 9.89583 17.9609ZM5 13.7551H8.95833V12.761H6.53646L6.51042 12.71C6.85764 12.3701 7.14861 12.0897 7.38333 11.8688C7.61806 11.6479 7.80451 11.4695 7.94271 11.3335C8.25521 11.0276 8.4941 10.7217 8.65938 10.4159C8.82465 10.11 8.90695 9.79561 8.90625 9.47274C8.90625 9.01392 8.72847 8.61457 8.37292 8.2747C8.01736 7.93484 7.52674 7.7649 6.90104 7.7649C6.22396 7.7649 5.74201 7.94333 5.45521 8.30019C5.1684 8.65705 4.99931 8.92895 4.94792 9.11587L5.96354 9.52372C5.9809 9.48973 6.05035 9.36228 6.17188 9.14137C6.2934 8.92045 6.52778 8.80999 6.875 8.80999C7.27431 8.80999 7.51319 8.91637 7.59167 9.12913C7.67014 9.34189 7.70903 9.47342 7.70833 9.52372C7.70833 9.65966 7.68229 9.80003 7.63021 9.94481C7.57812 10.0896 7.42188 10.3061 7.16146 10.5943C7.00521 10.7642 6.71424 11.0575 6.28854 11.4742L5 12.7355V13.7551ZM12.3438 13.8825C13.125 13.8825 13.7372 13.5892 14.1802 13.0026C14.6233 12.416 14.8444 11.6897 14.8438 10.8237C14.8438 9.95705 14.6181 9.23041 14.1667 8.6438C13.7153 8.05719 13.1076 7.76422 12.3438 7.7649C11.5625 7.7649 10.9507 8.05821 10.5083 8.64482C10.066 9.23143 9.84445 9.95773 9.84375 10.8237C9.84375 11.6904 10.0653 12.417 10.5083 13.0036C10.9514 13.5902 11.5632 13.8832 12.3438 13.8825ZM12.3438 12.8374C11.8924 12.8374 11.5538 12.6376 11.3281 12.2379C11.1024 11.8382 10.9896 11.3668 10.9896 10.8237C10.9896 10.4159 11.0851 9.97812 11.276 9.51046C11.467 9.0428 11.8229 8.80931 12.3438 8.80999C12.8646 8.80999 13.2205 9.04382 13.4115 9.51148C13.6024 9.97914 13.6979 10.4165 13.6979 10.8237C13.6979 11.3675 13.5851 11.8392 13.3594 12.2389C13.1337 12.6386 12.7951 12.8381 12.3438 12.8374Z" fill="#333333"/>
</svg>
