<svg width="12" height="12" viewBox="0 0 12 12" fill="none" xmlns="http://www.w3.org/2000/svg">
<path d="M11.468 11.156C11.2593 11.3647 11.0137 11.4688 10.7314 11.4683C10.449 11.4688 10.2035 11.3647 9.99482 11.156L6.31197 7.47314L2.62913 11.156C2.42043 11.3647 2.17466 11.469 1.89182 11.469C1.60996 11.469 1.36468 11.3647 1.15599 11.156C0.947292 10.9473 0.842699 10.7018 0.842208 10.4194C0.842699 10.1371 0.947292 9.89154 1.15599 9.68285L4.83883 6L1.15599 2.31715C0.947292 2.10846 0.842945 1.86269 0.842945 1.57985C0.842945 1.29799 0.947292 1.05271 1.15599 0.844013C1.36468 0.635319 1.61021 0.530725 1.89256 0.530235C2.17491 0.530726 2.42043 0.635319 2.62913 0.844013L6.31197 4.52686L9.99482 0.844014C10.2035 0.635319 10.4488 0.530971 10.7307 0.530971C11.0135 0.530971 11.2593 0.635319 11.468 0.844013C11.6767 1.05271 11.7808 1.29823 11.7803 1.58058C11.7808 1.86293 11.6767 2.10846 11.468 2.31715L7.78511 6L11.468 9.68285C11.6767 9.89154 11.781 10.1368 11.781 10.4187C11.781 10.7015 11.6767 10.9473 11.468 11.156Z" fill="#D42828"/>
</svg>
